<svg xmlns="http://www.w3.org/2000/svg" viewBox="0 0 512 512" fill="none">
  <defs>
    <linearGradient id="bg" x1="0" y1="0" x2="0" y2="1">
      <stop offset="0%" stop-color="#1e1e22"/>
      <stop offset="100%" stop-color="#111114"/>
    </linearGradient>
    <linearGradient id="bolt" x1="0.3" y1="0" x2="0.7" y2="1">
      <stop offset="0%" stop-color="#5DF590"/>
      <stop offset="100%" stop-color="#30D158"/>
    </linearGradient>
  </defs>

  <!-- Background -->
  <rect width="512" height="512" rx="96" fill="url(#bg)"/>

  <svg x="96" y="76" width="320" height="360" viewBox="46 64 254 254" fill="white">
    <path d="M173.1,317.3l35.5-199.5c33.8,0,44.5,3.7,46,18.8c0,0,22.7-8.5,34.1-25.6c-44.6-20.7-89.5-21.6-89.5-21.6l-26.2,31.9l0.1,0L147,89.4c0,0-44.9,0.9-89.5,21.6c11.4,17.2,34.1,25.6,34.1,25.6c1.5-15.1,12.2-18.8,45.8-18.9L173.1,317.3"/>
    <path d="M173.1,80.2c36.1-0.3,77.4,5.6,119.7,24c5.7-10.2,7.1-14.7,7.1-14.7C253.7,71.2,210.4,65,173.1,64.8C135.9,65,92.6,71.2,46.3,89.5c0,0,2.1,5.5,7.1,14.7C95.7,85.7,137,79.9,173.1,80.2L173.1,80.2"/>
  </svg>

  <!-- Green charging bolt — bottom right -->
  <g transform="translate(310, 290) scale(3.8)">
    <path d="M11 21h-1l1-7H7.5c-.58 0-.57-.32-.38-.66l.07-.12C8.48 10.94 10.42 7.54 13 3h1l-1 7h3.5c.49 0 .56.33.47.51l-.07.15C12.96 17.55 11 21 11 21z" fill="url(#bolt)"/>
  </g>
</svg>
